<?xml version="1.0" standalone="no"?>
<!DOCTYPE svg PUBLIC "-//W3C//DTD SVG 20010904//EN"
 "http://www.w3.org/TR/2001/REC-SVG-20010904/DTD/svg10.dtd">
<svg version="1.0" xmlns="http://www.w3.org/2000/svg"
 width="1101.000000pt" height="1101.000000pt" viewBox="0 0 1101.000000 1101.000000"
 preserveAspectRatio="xMidYMid meet">
<metadata>
Created by potrace 1.14, written by Peter Selinger 2001-2017
</metadata>
<g transform="translate(0.000000,1101.000000) scale(0.100000,-0.100000)"
fill="#000000" stroke="none">
<path d="M1 8418 l1 -2593 24 75 c13 41 29 79 34 84 6 6 10 23 10 38 0 15 5
28 10 28 6 0 10 11 10 25 0 14 4 33 9 43 11 21 32 82 62 182 12 41 26 79 31
85 4 5 8 19 8 32 0 13 5 23 10 23 6 0 10 11 10 25 0 14 4 33 9 43 5 9 51 145
101 302 51 157 96 292 101 300 12 19 9 13 59 170 23 74 48 144 55 155 12 20
21 20 590 17 l577 -2 -7 -38 c-3 -20 -11 -41 -16 -47 -5 -5 -9 -21 -9 -35 0
-14 -4 -30 -8 -35 -5 -6 -30 -75 -56 -155 -26 -80 -51 -154 -55 -165 -5 -11
-52 -153 -105 -315 -54 -162 -101 -303 -107 -312 -5 -10 -9 -27 -9 -37 0 -11
-4 -23 -10 -26 -5 -3 -10 -19 -10 -36 0 -16 -4 -29 -10 -29 -5 0 -10 -13 -10
-29 0 -16 -3 -31 -7 -33 -5 -1 -25 -57 -46 -123 -21 -66 -43 -128 -48 -137 -5
-10 -9 -25 -9 -33 0 -8 -4 -23 -9 -33 -5 -9 -25 -66 -45 -127 -21 -60 -73
-219 -118 -352 l-80 -243 -469 0 -469 0 0 -2555 0 -2555 5505 0 5505 0 0 3603
c0 2265 -4 3596 -10 3587 -8 -13 -79 -14 -558 -12 -422 3 -558 1 -591 -9 -50
-15 -96 -63 -110 -116 -15 -54 -14 -67 10 -89 20 -18 47 -19 458 -25 336 -5
444 -9 471 -20 89 -35 159 -100 202 -188 19 -40 22 -62 22 -161 0 -98 -4 -127
-27 -195 -74 -218 -257 -420 -457 -503 -114 -47 -94 -46 -672 -50 -302 -2
-548 -2 -548 0 0 6 61 192 77 235 l15 42 527 3 526 3 51 27 c66 35 140 117
181 200 29 58 33 77 33 143 0 92 -20 133 -78 161 -34 17 -75 20 -472 25 -239
3 -447 9 -462 13 -40 12 -106 72 -130 119 -55 108 -20 297 80 434 33 44 142
135 206 172 86 49 111 51 703 51 l553 0 0 1780 0 1780 -5505 0 -5505 0 1
-2592z m6883 -992 c176 -50 298 -178 347 -361 25 -93 13 -316 -21 -400 -4 -11
-18 -47 -31 -80 -106 -284 -323 -527 -589 -660 -201 -101 -176 -97 -717 -102
-313 -3 -463 -1 -463 6 0 11 76 252 90 286 8 18 130 398 197 610 14 44 29 89
34 100 4 11 25 72 44 135 20 63 42 131 48 150 6 19 15 39 19 45 4 5 8 22 8 37
0 15 5 28 10 28 6 0 10 7 10 16 0 26 61 198 74 207 6 4 207 6 446 4 371 -3
444 -6 494 -21z m2143 1 c78 -42 94 -152 40 -270 -50 -109 -163 -197 -252
-197 -34 0 -34 1 -28 33 3 17 9 34 12 37 8 6 27 65 36 106 l6 31 -203 6 c-297
10 -596 8 -648 -4 -52 -12 -84 -38 -111 -91 -25 -50 -25 -100 2 -124 20 -18
46 -19 453 -24 272 -4 442 -10 461 -16 146 -53 224 -159 233 -316 l5 -78 68 0
c84 0 84 3 30 -160 l-38 -115 -71 -3 c-80 -3 -66 8 -168 -130 -79 -107 -198
-195 -349 -258 l-70 -29 -555 -3 -555 -3 -44 23 c-23 13 -57 43 -75 67 -30 42
-31 46 -31 145 0 99 1 106 38 178 48 95 109 164 185 211 123 76 80 71 740 75
l594 3 -7 26 c-7 31 -33 66 -60 85 -16 10 -116 14 -460 19 -482 7 -485 8 -558
69 -45 38 -61 67 -77 144 -21 104 12 224 96 342 94 133 220 214 364 234 30 4
260 7 510 6 415 -1 458 -3 487 -19z m-5756 -7 c19 -11 27 -40 10 -40 -5 0 -11
-12 -14 -27 -6 -36 -36 -130 -86 -273 -22 -63 -40 -125 -41 -137 0 -12 -4 -25
-10 -28 -5 -3 -10 -16 -10 -29 0 -12 -3 -25 -6 -29 -4 -3 -17 -39 -31 -79 -13
-40 -28 -82 -33 -93 -10 -21 -51 -150 -71 -225 -7 -25 -16 -49 -21 -55 -4 -5
-8 -16 -8 -25 0 -9 -9 -35 -20 -58 -11 -22 -20 -49 -20 -60 0 -10 -4 -22 -8
-27 -5 -6 -28 -71 -52 -145 -23 -74 -46 -139 -50 -145 -7 -9 -23 -66 -24 -87
-1 -3 -4 -10 -8 -14 -5 -4 -8 -20 -8 -36 0 -15 -4 -28 -10 -28 -5 0 -10 -7
-10 -15 0 -9 -16 -62 -36 -118 -19 -56 -44 -131 -56 -167 -51 -164 -69 -220
-91 -284 l-24 -68 -554 1 c-305 1 -557 5 -561 9 -3 4 2 36 12 72 9 36 29 107
43 158 14 51 30 99 37 107 6 8 9 19 5 25 -3 5 -1 10 4 10 6 0 11 7 11 16 0 9
6 30 14 47 8 18 22 59 32 92 23 84 52 170 73 219 10 22 23 59 30 81 6 22 20
69 31 104 11 35 17 67 14 72 -3 5 0 9 5 9 6 0 11 9 11 19 0 11 5 23 10 26 6 3
10 17 10 31 0 13 4 24 9 24 5 0 11 9 14 20 3 11 6 23 7 25 7 22 25 82 41 140
19 67 47 147 74 210 7 17 18 50 25 75 6 25 15 54 20 65 5 11 16 48 24 82 8 34
25 83 37 110 33 75 37 86 42 113 7 37 48 170 62 205 7 17 20 48 29 70 9 22 24
46 33 53 22 16 1063 18 1094 2z m2774 -1813 c17 -13 17 -15 -6 -30 -17 -13
-45 -17 -105 -17 -53 0 -85 -4 -92 -12 -12 -16 -42 -114 -42 -140 0 -16 9 -18
65 -18 50 0 67 -4 72 -15 9 -25 -3 -29 -83 -33 -84 -5 -85 -5 -115 -105 -13
-43 -14 -59 -6 -62 7 -3 50 -6 97 -7 77 -3 85 -5 85 -23 0 -19 -8 -20 -142
-23 -118 -2 -143 0 -143 12 0 7 7 19 15 26 19 16 66 165 59 185 -4 9 2 26 14
38 24 26 62 145 62 192 0 40 5 41 151 44 66 1 101 -3 114 -12z m440 0 c17 -13
17 -15 -6 -30 -16 -12 -44 -17 -85 -17 -65 0 -76 -7 -88 -50 -29 -103 -120
-368 -131 -379 -7 -7 -21 -11 -30 -7 -19 7 -24 -12 56 235 33 102 57 191 55
198 -4 9 -26 13 -71 13 -52 0 -65 3 -65 15 0 27 40 34 196 34 111 1 155 -3
169 -12z m2004 0 c31 -15 36 -31 16 -50 -12 -12 -22 -14 -41 -7 -37 15 -127
12 -165 -4 -105 -44 -179 -141 -179 -234 0 -29 7 -66 15 -81 27 -52 118 -76
193 -50 29 10 51 43 65 94 3 11 8 30 12 43 6 21 3 22 -42 22 -54 0 -80 15 -62
37 14 16 184 19 194 2 4 -5 0 -18 -9 -28 -9 -10 -29 -56 -44 -102 -26 -81 -29
-85 -73 -107 -52 -26 -130 -38 -183 -28 -41 8 -100 55 -122 97 -30 59 -11 162
46 245 46 66 135 132 210 155 40 12 143 10 169 -4z m831 -6 c0 -11 -20 -81
-45 -157 -53 -162 -57 -213 -19 -243 50 -39 126 -20 188 49 27 30 44 69 82
186 26 82 54 157 62 167 21 24 42 21 42 -6 0 -37 -98 -318 -125 -359 -51 -76
-173 -131 -244 -109 -107 32 -116 95 -45 314 26 78 51 150 56 160 12 24 48 22
48 -2z m744 13 c9 -3 16 -12 16 -20 0 -22 -35 -34 -103 -34 -76 0 -64 20 -143
-235 -51 -167 -69 -205 -94 -205 -12 0 -20 7 -20 17 0 9 27 100 61 201 33 101
59 193 57 205 -3 19 -11 23 -68 27 -48 4 -65 9 -65 20 0 8 11 17 25 21 31 9
313 11 334 3z m423 -20 c53 -39 73 -81 73 -151 0 -165 -159 -323 -335 -331
-60 -3 -75 0 -104 20 -61 42 -76 71 -76 151 0 55 5 83 23 119 38 77 105 143
185 183 65 33 78 36 139 33 48 -3 75 -10 95 -24z m-4914 -14 c48 -41 61 -78
55 -153 -7 -77 -34 -134 -100 -204 -74 -78 -135 -103 -247 -103 -49 0 -92 3
-94 8 -3 4 8 45 23 92 15 47 46 141 68 210 65 202 45 180 161 180 97 0 101 -1
134 -30z m1181 3 c3 -16 10 -117 16 -226 11 -206 7 -242 -28 -235 -13 3 -18
19 -24 77 -4 44 -12 77 -20 82 -15 10 -102 12 -133 3 -12 -3 -36 -28 -55 -56
-51 -76 -80 -108 -96 -108 -28 0 -27 31 3 68 16 20 60 82 98 137 200 292 226
320 239 258z m291 14 c5 -11 -125 -420 -146 -459 -11 -20 -34 -24 -44 -8 -9
14 126 441 147 468 13 16 37 16 43 -1z m150 3 c5 -9 -64 -246 -101 -343 -8
-20 -14 -48 -14 -62 0 -24 2 -24 93 -27 84 -3 92 -5 92 -23 0 -19 -8 -20 -124
-23 -68 -1 -128 1 -134 7 -8 8 110 395 140 454 14 27 37 36 48 17z m357 -15
c-5 -32 -122 -397 -139 -432 -17 -36 -53 -46 -53 -15 0 26 137 441 151 458 17
21 45 13 41 -11z m210 -77 c25 -57 60 -140 78 -185 19 -46 36 -83 39 -83 4 0
33 81 65 180 46 137 64 181 79 186 34 11 36 -10 7 -96 -16 -47 -48 -145 -71
-219 -45 -139 -66 -178 -90 -169 -8 3 -48 85 -89 181 -55 131 -77 174 -86 166
-6 -5 -33 -76 -59 -157 -26 -81 -53 -157 -61 -169 -15 -23 -54 -32 -54 -12 0
14 139 438 152 462 5 9 17 17 27 17 14 0 30 -25 63 -102z m1275 -48 c13 -164
16 -301 7 -324 -9 -24 -43 -20 -49 7 -3 12 -6 49 -7 82 l-3 60 -83 0 c-64 0
-85 -4 -92 -15 -5 -8 -30 -44 -57 -80 -49 -66 -83 -88 -83 -53 0 19 43 86 204
313 109 154 116 161 135 158 13 -3 18 -31 28 -148z"/>
<path d="M6160 7171 c-30 -5 -37 -12 -56 -61 -18 -43 -140 -417 -227 -690 -6
-19 -15 -39 -19 -44 -4 -6 -8 -18 -8 -28 0 -10 -4 -26 -9 -36 -12 -22 -61
-184 -61 -201 0 -18 599 -11 650 8 122 45 178 82 278 180 158 157 242 342 242
533 0 128 -38 216 -113 266 -106 70 -168 82 -432 81 -115 -1 -226 -4 -245 -8z"/>
<path d="M7620 6241 c-58 -3 -111 -10 -118 -14 -21 -14 -43 -67 -40 -95 l3
-27 505 0 505 0 45 24 c50 26 110 79 110 96 0 8 -40 14 -122 18 -139 8 -732 6
-888 -2z"/>
<path d="M10265 5534 c-105 -53 -160 -133 -160 -232 0 -61 2 -65 37 -98 34
-30 44 -34 93 -34 71 0 136 32 194 95 52 57 71 100 71 163 0 114 -116 167
-235 106z"/>
<path d="M5414 5553 c-34 -7 -50 -32 -79 -123 -15 -47 -35 -109 -46 -138 -24
-67 -24 -99 0 -112 71 -38 209 48 262 163 25 55 24 123 -1 165 -28 45 -68 59
-136 45z"/>
<path d="M6642 5420 c-23 -32 -42 -64 -42 -70 0 -17 100 -13 106 5 8 19 -5
125 -15 125 -4 0 -26 -27 -49 -60z"/>
<path d="M8943 5458 c-34 -38 -72 -101 -67 -110 3 -4 27 -8 55 -8 l49 0 0 70
c0 39 -4 70 -8 70 -5 0 -18 -10 -29 -22z"/>
</g>
</svg>
